<?xml version="1.0" encoding="UTF-8" standalone="no"?>
<!-- Created with Inkscape (http://www.inkscape.org/) -->

<svg
   version="1.1"
   id="svg178"
   width="1489.3333"
   height="497.33334"
   viewBox="0 0 1489.3333 497.33334"
   sodipodi:docname="gold-siFive.svg"
   inkscape:version="1.2.2 (b0a84865, 2022-12-01)"
   xmlns:inkscape="http://www.inkscape.org/namespaces/inkscape"
   xmlns:sodipodi="http://sodipodi.sourceforge.net/DTD/sodipodi-0.dtd"
   xmlns="http://www.w3.org/2000/svg"
   xmlns:svg="http://www.w3.org/2000/svg">
  <defs
     id="defs182">
    <clipPath
       clipPathUnits="userSpaceOnUse"
       id="clipPath194">
      <path
         d="M 0,372.758 H 1116.51 V 0.06 L 0,0.06 Z"
         id="path192" />
    </clipPath>
    <clipPath
       clipPathUnits="userSpaceOnUse"
       id="clipPath214">
      <path
         d="M 0,372.758 H 1116.51 V 0.06 L 0,0.06 Z"
         id="path212" />
    </clipPath>
  </defs>
  <sodipodi:namedview
     id="namedview180"
     pagecolor="#ffffff"
     bordercolor="#666666"
     borderopacity="1.0"
     inkscape:showpageshadow="2"
     inkscape:pageopacity="0.0"
     inkscape:pagecheckerboard="0"
     inkscape:deskcolor="#d1d1d1"
     showgrid="false"
     inkscape:zoom="0.47453082"
     inkscape:cx="744.94635"
     inkscape:cy="248.66667"
     inkscape:window-width="1427"
     inkscape:window-height="456"
     inkscape:window-x="0"
     inkscape:window-y="25"
     inkscape:window-maximized="0"
     inkscape:current-layer="g186">
    <inkscape:page
       x="0"
       y="0"
       id="page184"
       width="1489.3333"
       height="497.33334" />
  </sodipodi:namedview>
  <g
     id="g186"
     inkscape:groupmode="layer"
     inkscape:label="Page 1"
     transform="matrix(1.3333333,0,0,-1.3333333,0,497.33333)">
    <g
       id="g188">
      <g
         id="g190"
         clip-path="url(#clipPath194)">
        <path
           d="m 47.49,179.806 50.976,155.952 h 195.33 l 19.825,-60.672 H 141.077 L 130.043,240.669 H 324.867 L 354.156,151.033 196.131,36.098 45.947,145.388 H 147.36 l 48.324,-35.166 95.619,69.547 z M 317.346,372.758 H 74.915 L 0,142.345 196.131,0 392.261,142.395 317.346,372.758"
           style="fill:#282828;fill-opacity:1;fill-rule:nonzero;stroke:none"
           id="path196" />
      </g>
    </g>
    <path
       d="m 589.861,267.356 -12.03,-25.529 c -18.656,11.291 -37.314,15.956 -50.323,15.956 -16.937,0 -27.986,-6.383 -27.986,-17.922 0,-37.556 92.793,-17.429 92.547,-79.29 0,-30.686 -27.001,-49.586 -64.806,-49.586 -27.005,0 -52.534,11.045 -70.208,27.247 l 12.518,25.041 c 17.677,-16.205 39.768,-25.041 58.181,-25.041 20.128,0 32.158,7.61 32.158,20.866 0,38.296 -92.793,16.938 -92.793,78.064 0,29.458 25.284,47.868 62.598,47.868 22.339,0 44.188,-7.119 60.144,-17.674"
       style="fill:#282828;fill-opacity:1;fill-rule:nonzero;stroke:none"
       id="path198" />
    <path
       d="m 624.23,242.563 h 27.983 V 111.966 H 624.23 Z m 30.44,37.311 c 0,-9.818 -7.119,-16.938 -16.45,-16.938 -9.327,0 -16.447,7.12 -16.447,16.938 0,10.067 7.12,17.186 16.447,17.186 9.331,0 16.45,-7.119 16.45,-17.186"
       style="fill:#282828;fill-opacity:1;fill-rule:nonzero;stroke:none"
       id="path200" />
    <path
       d="m 702.539,284.364 -0.805,-0.806 V 111.966 l 0.805,-0.805 h 10.309 l 0.805,0.805 v 76.277 h 81.678 l 0.806,0.805 v 10.309 l -0.806,0.806 h -81.678 v 72.526 h 92.233 l 0.805,0.805 v 10.064 l -0.805,0.806 H 702.539"
       style="fill:#282828;fill-opacity:1;fill-rule:nonzero;stroke:none"
       id="path202" />
    <path
       d="m 839.271,286.327 c -5.182,0 -9.398,-4.327 -9.398,-9.643 0,-5.452 4.216,-9.888 9.398,-9.888 5.181,0 9.397,4.436 9.397,9.888 0,5.316 -4.216,9.643 -9.397,9.643"
       style="fill:#282828;fill-opacity:1;fill-rule:nonzero;stroke:none"
       id="path204" />
    <path
       d="m 834.114,240.666 -0.805,-0.805 V 111.966 l 0.805,-0.805 h 10.068 l 0.805,0.805 v 127.895 l -0.805,0.805 h -10.068"
       style="fill:#282828;fill-opacity:1;fill-rule:nonzero;stroke:none"
       id="path206" />
    <g
       id="g208">
      <g
         id="g210"
         clip-path="url(#clipPath214)">
        <path
           d="m 975.021,240.666 -0.75,-0.51 -45.155,-114.948 -45.399,114.949 -0.749,0.509 h -11.049 l -0.746,-1.108 51.798,-127.895 0.746,-0.502 h 10.554 l 0.748,0.504 51.552,127.895 -0.747,1.106 h -10.803"
           style="fill:#282828;fill-opacity:1;fill-rule:nonzero;stroke:none"
           id="path216" />
        <path
           d="m 1005.12,182.98 c 2.76,28.148 23.22,46.993 51.16,46.993 27.68,0 46.92,-18.413 49.21,-46.993 z m 111.37,-9.903 c 0.39,21 -5.92,39.219 -17.78,51.302 -10.62,10.816 -25.29,16.533 -42.43,16.533 -36.6,0 -63.158,-27.388 -63.158,-65.122 0,-37.59 26.558,-64.875 63.158,-64.875 20.07,0 37.89,7.33 50.18,20.636 l 0.01,1.081 -5.89,6.625 -1.2,0.008 c -10.25,-11.227 -25.38,-17.411 -42.61,-17.411 -29.37,0 -50.14,20.229 -51.93,50.432 h 110.84 l 0.81,0.791"
           style="fill:#282828;fill-opacity:1;fill-rule:nonzero;stroke:none"
           id="path218" />
      </g>
    </g>
  </g>
</svg>
